<svg width="240" height="96" viewBox="0 0 240 96" fill="none" xmlns="http://www.w3.org/2000/svg">
<g filter="url(#filter0_d_444_598)">
<path d="M48 4.5H192V3.5H48V4.5ZM192 59.5H48V60.5H192V59.5ZM48 59.5C32.8122 59.5 20.5 47.1878 20.5 32H19.5C19.5 47.7401 32.2599 60.5 48 60.5V59.5ZM219.5 32C219.5 47.1878 207.188 59.5 192 59.5V60.5C207.74 60.5 220.5 47.7401 220.5 32H219.5ZM192 4.5C207.188 4.5 219.5 16.8122 219.5 32H220.5C220.5 16.2599 207.74 3.5 192 3.5V4.5ZM48 3.5C32.2599 3.5 19.5 16.2599 19.5 32H20.5C20.5 16.8122 32.8122 4.5 48 4.5V3.5Z" fill="url(#paint0_linear_444_598)"/>
</g>
<defs>
<filter id="filter0_d_444_598" x="0" y="0" width="240" height="96" filterUnits="userSpaceOnUse" color-interpolation-filters="sRGB">
<feFlood flood-opacity="0" result="BackgroundImageFix"/>
<feColorMatrix in="SourceAlpha" type="matrix" values="0 0 0 0 0 0 0 0 0 0 0 0 0 0 0 0 0 0 127 0" result="hardAlpha"/>
<feMorphology radius="4" operator="dilate" in="SourceAlpha" result="effect1_dropShadow_444_598"/>
<feOffset dy="16"/>
<feGaussianBlur stdDeviation="8"/>
<feColorMatrix type="matrix" values="0 0 0 0 0 0 0 0 0 0 0 0 0 0 0 0 0 0 0.12 0"/>
<feBlend mode="normal" in2="BackgroundImageFix" result="effect1_dropShadow_444_598"/>
<feBlend mode="normal" in="SourceGraphic" in2="effect1_dropShadow_444_598" result="shape"/>
</filter>
<linearGradient id="paint0_linear_444_598" x1="25.0773" y1="4" x2="52.3926" y2="104.573" gradientUnits="userSpaceOnUse">
<stop stop-color="#0FEFFD"/>
<stop offset="0.515718" stop-color="#FF00F5"/>
<stop offset="0.776042" stop-color="#0FEFFD" stop-opacity="0.22"/>
</linearGradient>
</defs>
</svg>
