<svg width="56" height="56" viewBox="0 0 56 56" fill="none" xmlns="http://www.w3.org/2000/svg">
<g clip-path="url(#clip0_444_2328)">
<g filter="url(#filter0_d_444_2328)">
<path fill-rule="evenodd" clip-rule="evenodd" d="M13.3806 9.28615V46.0584C13.3805 47.1675 13.8902 48.1952 14.723 48.7648C15.5558 49.3344 16.5891 49.3621 17.4444 48.8378L47.4732 30.4517C48.3695 29.9026 48.9288 28.8345 48.9288 27.6723C48.9288 26.51 48.3695 25.442 47.4732 24.8928L17.4444 6.50669C16.5891 5.98243 15.5558 6.01017 14.723 6.57975C13.8902 7.14933 13.3805 8.177 13.3806 9.28615Z" stroke="url(#paint0_linear_444_2328)" stroke-width="1.5" stroke-linecap="round" stroke-linejoin="round"/>
</g>
<g filter="url(#filter1_d_444_2328)">
<path fill-rule="evenodd" clip-rule="evenodd" d="M12.2083 45.4207L48.6377 40.4115C49.7366 40.2605 50.6852 39.6155 51.136 38.7129C51.5869 37.8104 51.4736 36.7828 50.8377 36.007L28.5324 8.76267C27.8663 7.94954 26.732 7.54089 25.5806 7.69921C24.4291 7.85754 23.4472 8.55717 23.0253 9.51991L8.90114 41.7734C8.49827 42.6921 8.66652 43.712 9.34423 44.4595C10.0219 45.2069 11.1095 45.5719 12.2083 45.4207Z" stroke="url(#paint1_linear_444_2328)" stroke-width="1.5" stroke-linecap="round" stroke-linejoin="round"/>
</g>
</g>
<defs>
<filter id="filter0_d_444_2328" x="5.07942" y="2.44261" width="52.1519" height="58.4593" filterUnits="userSpaceOnUse" color-interpolation-filters="sRGB">
<feFlood flood-opacity="0" result="BackgroundImageFix"/>
<feColorMatrix in="SourceAlpha" type="matrix" values="0 0 0 0 0 0 0 0 0 0 0 0 0 0 0 0 0 0 127 0" result="hardAlpha"/>
<feOffset dy="4"/>
<feGaussianBlur stdDeviation="2"/>
<feColorMatrix type="matrix" values="0 0 0 0 0 0 0 0 0 0 0 0 0 0 0 0 0 0 0.25 0"/>
<feBlend mode="normal" in2="BackgroundImageFix" result="effect1_dropShadow_444_2328"/>
<feBlend mode="normal" in="SourceGraphic" in2="effect1_dropShadow_444_2328" result="shape"/>
</filter>
<filter id="filter1_d_444_2328" x="-4" y="0" width="64.0034" height="58.614" filterUnits="userSpaceOnUse" color-interpolation-filters="sRGB">
<feFlood flood-opacity="0" result="BackgroundImageFix"/>
<feColorMatrix in="SourceAlpha" type="matrix" values="0 0 0 0 0 0 0 0 0 0 0 0 0 0 0 0 0 0 127 0" result="hardAlpha"/>
<feOffset dy="4"/>
<feGaussianBlur stdDeviation="2"/>
<feColorMatrix type="matrix" values="0 0 0 0 0 0 0 0 0 0 0 0 0 0 0 0 0 0 0.25 0"/>
<feBlend mode="normal" in2="BackgroundImageFix" result="effect1_dropShadow_444_2328"/>
<feBlend mode="normal" in="SourceGraphic" in2="effect1_dropShadow_444_2328" result="shape"/>
</filter>
<linearGradient id="paint0_linear_444_2328" x1="14.283" y1="6.13216" x2="55.2841" y2="41.0114" gradientUnits="userSpaceOnUse">
<stop stop-color="white"/>
<stop offset="0.515718" stop-color="#6A6A6A"/>
<stop offset="0.822917" stop-color="white" stop-opacity="0"/>
</linearGradient>
<linearGradient id="paint1_linear_444_2328" x1="8.96075" y1="44.9563" x2="37.9296" y2="-0.413874" gradientUnits="userSpaceOnUse">
<stop stop-color="white"/>
<stop offset="0.515718" stop-color="#6A6A6A"/>
<stop offset="0.822917" stop-color="white" stop-opacity="0"/>
</linearGradient>
<clipPath id="clip0_444_2328">
<rect width="56" height="56" fill="white"/>
</clipPath>
</defs>
</svg>
