<svg width="73" height="73" viewBox="0 0 73 73" fill="none" xmlns="http://www.w3.org/2000/svg">
<path d="M36.5 73C56.6584 73 73 56.6584 73 36.5C73 16.3416 56.6584 0 36.5 0C16.3416 0 0 16.3416 0 36.5C0 56.6584 16.3416 73 36.5 73ZM36.5 4.5625C54.1104 4.5625 68.4375 18.8896 68.4375 36.5C68.4375 54.1104 54.1104 68.4375 36.5 68.4375C18.8896 68.4375 4.5625 54.1104 4.5625 36.5C4.5625 18.8896 18.8896 4.5625 36.5 4.5625Z" fill="#BBBBBB"/>
<path d="M29.0262 41.1614C30.3459 41.1614 31.5477 40.6354 32.4455 39.7778L39.0237 42.9495C38.9747 43.2384 38.9476 43.535 38.9476 43.838C38.9476 46.6841 41.2026 49 43.9738 49C46.745 49 49 46.6841 49 43.838C49 40.992 46.745 38.6761 43.9738 38.6761C42.42 38.6761 41.0287 39.4044 40.106 40.5457L33.8297 37.5196C33.9742 37.0387 34.0525 36.5283 34.0525 35.9994C34.0525 35.572 34.0007 35.157 33.9049 34.7596L40.298 31.6772C41.2163 32.6893 42.5239 33.3239 43.9738 33.3239C46.745 33.3239 49 31.008 49 28.162C49 25.3159 46.745 23 43.9738 23C41.2026 23 38.9476 25.3159 38.9476 28.162C38.9476 28.5667 38.9947 28.9603 39.0809 29.3385L32.657 32.4357C31.7413 31.452 30.4527 30.8373 29.0262 30.8373C26.255 30.8373 24 33.1532 24 35.9993C24 38.8453 26.255 41.1614 29.0262 41.1614ZM43.9737 41.3243C45.3234 41.3243 46.4214 42.4519 46.4214 43.838C46.4214 45.2242 45.3234 46.3518 43.9737 46.3518C42.624 46.3518 41.5261 45.2242 41.5261 43.838C41.5261 42.4519 42.624 41.3243 43.9737 41.3243ZM43.9737 25.6484C45.3234 25.6484 46.4214 26.7759 46.4214 28.1621C46.4214 29.5483 45.3234 30.6759 43.9737 30.6759C42.624 30.6759 41.5261 29.5483 41.5261 28.1621C41.5261 26.776 42.624 25.6484 43.9737 25.6484ZM29.0262 33.4857C30.3759 33.4857 31.4738 34.6133 31.4738 35.9994C31.4738 37.3856 30.376 38.5132 29.0262 38.5132C27.6764 38.5132 26.5786 37.3856 26.5786 35.9994C26.5786 34.6133 27.6764 33.4857 29.0262 33.4857Z" fill="white"/>
<path d="M44.1019 26.852C44.0652 27.5137 44.7263 28.1904 45.2126 27.5009C45.3248 27.3419 45.5229 26.7229 45.2126 26.7095C44.3512 26.6722 44.1854 27.0218 44.2284 27.9916C44.2377 28.2013 44.5037 28.1396 44.6362 28.1341C45.1334 28.1134 45.1367 27.6676 45.1142 27.2002C45.0676 26.2293 42.8487 26.7685 42.4709 27.0736C40.7501 28.4634 44.2946 29.7505 44.355 28.5615C44.3742 28.1825 44.4815 27.8391 44.4815 27.4535C44.4815 27.2942 44.4863 27.1643 44.2847 27.2952C43.7389 27.6492 43.4459 28.3599 43.3005 29.0205C43.1185 29.8469 43.8334 30.1186 44.4815 29.9544C45.0519 29.8099 44.9877 29.1514 44.9877 28.6485C44.9877 27.115 43.8816 29.746 45.3532 28.9176C45.9934 28.5573 46 28.0601 46 27.3585C46 26.1421 44.3777 26.6012 44.2214 25.6331C44.1317 25.0777 43.5645 25 43.1599 25C42.5717 25 44.3362 25 44.9244 25C45.2699 25 45.2408 25.4966 45.2408 25.7756C45.2408 26.3417 44.6313 26.3418 44.2003 26.4088C44.0791 26.4276 43.5053 26.4139 43.5817 26.4483C44.0639 26.6655 44.4954 26.9522 44.9877 27.1369" stroke="white" stroke-width="4" stroke-linecap="round"/>
<path d="M29.1904 34.0471C28.8144 34.0098 28.3961 33.9177 28.0662 34.1733C27.7548 34.4145 27.6564 34.8012 27.6599 35.1898C27.6659 35.8554 28.116 36.8586 28.8975 36.6647C29.2989 36.5651 29.1665 35.4623 29.0707 35.1666C28.9408 34.7651 28.6136 35.2023 28.548 35.4223C28.3844 35.9708 28.9132 36.0378 29.2786 36.0667C29.4906 36.0835 29.7487 36.1424 29.8675 35.9106C29.9999 35.6521 30.0458 35.3419 29.9462 35.0636C29.8458 34.783 29.4324 34.0698 29.0802 34.5188C28.7235 34.9734 28.7605 35.6674 29.3794 35.7678C29.8628 35.8462 29.8934 35.4177 29.8675 35.0071C29.8518 34.7595 29.6424 34.7563 29.4423 34.7646C29.085 34.7794 28.8958 35.0573 28.7212 35.3559C28.6 35.5631 28.2963 36.4008 28.8377 36.3192C28.9911 36.2961 28.9369 35.9025 28.9196 35.8143C28.8613 35.5182 28.5928 35.2235 28.3149 35.1367C27.8417 34.9888 27.7259 35.6429 27.6725 35.987C27.5938 36.4946 27.7727 36.231 27.6095 35.9472C27.3896 35.5647 26.5676 35.492 26.1924 35.5486C25.8844 35.595 26.007 36.147 26.142 36.3192C26.416 36.6687 27.0777 36.9688 27.4961 36.7577C27.6141 36.6981 27.6622 36.2338 27.5969 36.1133C27.5358 36.0004 27.3566 36.2106 27.3324 36.2528C27.1396 36.5886 27.0845 37.1822 27.2505 37.535C27.4525 37.964 27.8768 37.9934 28.274 37.9934C28.4644 37.9934 28.7491 38.0424 28.8944 37.8738C29.023 37.7246 29.134 37.4901 29.2817 37.3689C29.3644 37.3011 29.5409 37.2372 29.6439 37.1829C29.9415 37.0259 29.9273 37.1267 29.9273 37.4552C29.9273 37.7458 29.9564 37.814 29.647 37.814C29.1202 37.814 28.6909 37.7411 28.3212 37.3024C28.1604 37.1115 27.7864 36.7872 27.7733 36.5252C27.7546 36.1508 27.7695 35.7646 27.8331 35.3958C27.8982 35.0181 28.113 34.676 28.3401 34.3859C28.3896 34.3228 28.5159 34.9181 28.3685 35.0735C28.0126 35.449 27.338 35.8122 27.2694 36.4089C27.2383 36.6799 27.2102 37.067 27.2757 37.3357C27.3683 37.7154 27.5634 37.814 27.8866 37.814" stroke="white" stroke-width="4" stroke-linecap="round"/>
<path d="M44.1166 42.757C43.689 43.0746 43.4475 43.3137 43.4372 43.8373C43.4302 44.1945 43.9617 44.0458 44.223 43.97C44.5554 43.8735 44.9043 43.4773 44.6931 43.1322C44.4954 42.8091 43.7257 42.9982 43.5367 43.2357C43.2669 43.5749 43.2866 44.0848 43.3171 44.4875C43.342 44.8155 44.2589 44.7046 44.4735 44.6266C45.027 44.4255 45.0426 43.5766 44.7377 43.1839C44.3507 42.6857 43.1192 42.7236 42.5862 42.9575C41.9472 43.238 41.6617 44.7052 42.6171 44.7334C43.3267 44.7543 44.8618 44.6269 45.0294 43.7532C45.158 43.0826 44.9444 42.7398 44.2196 42.7052C43.1897 42.6561 42.379 43.2942 42.823 44.2708C42.9737 44.6024 44.1839 44.4544 44.4598 44.4325C44.9654 44.3925 45.0729 43.8056 44.7514 43.4751C44.6019 43.3213 43.9559 43.1425 43.7598 43.3069C43.6163 43.4271 43.682 43.8256 43.6911 43.9764C43.7137 44.3486 43.8325 44.6953 44.1029 44.976C44.4569 45.3435 45.4585 45.2817 45.9009 45.1118C46.2459 44.9793 45.5869 44.7381 45.4892 44.7366C44.9867 44.7286 44.5329 44.7822 44.2676 45.2347C44.0894 45.5387 44.9648 45.1797 45.0465 45.0989C45.2237 44.9238 45.2688 44.6217 45.1701 44.4002C44.9895 43.9948 44.3102 44.022 43.9451 44.1155C43.2907 44.2832 42.5975 45.2811 43.6122 45.4515C44.1228 45.5372 45.1202 45.4894 45.3382 44.9242C45.3992 44.7661 45.1624 44.8342 45.0911 44.8595C44.6784 45.0062 44.2221 45.2941 43.9451 45.6229C43.767 45.8343 43.7919 46.0733 43.4544 45.9787C43.2261 45.9147 43.0252 45.797 42.8299 45.6714C42.4658 45.4374 42.5142 45.1285 42.5107 44.7366C42.504 43.9755 42.3732 42.9913 43.0357 42.4173C43.4306 42.0753 44.0387 42.0078 44.5558 42C45.2034 41.9904 45.2309 43.5182 45.146 43.9247C45.0684 44.2967 44.5824 44.4302 44.2539 44.5263C43.6225 44.7112 42.9785 44.7871 42.3254 44.853" stroke="white" stroke-width="4" stroke-linecap="round"/>
</svg>
