<svg width="15" height="15" viewBox="0 0 15 15" fill="none" xmlns="http://www.w3.org/2000/svg">
<path d="M7.5 9.80416L7.7419 9.36657C7.59137 9.28336 7.40863 9.28336 7.2581 9.36657L7.5 9.80416ZM5.33677 11L4.8433 10.9195C4.81246 11.1085 4.89227 11.2985 5.0488 11.4087C5.20533 11.519 5.41109 11.5302 5.57867 11.4376L5.33677 11ZM5.75 8.46718L6.24348 8.54769C6.26903 8.39105 6.21871 8.23159 6.10787 8.118L5.75 8.46718ZM4 6.6736L3.92453 6.17933C3.73926 6.20761 3.58537 6.33713 3.52587 6.51485C3.46637 6.69257 3.51124 6.88864 3.64213 7.02278L4 6.6736ZM6.41839 6.30434L6.49385 6.79861C6.6587 6.77345 6.80015 6.66775 6.87101 6.51679L6.41839 6.30434ZM7.5 4L7.95262 3.78755C7.87025 3.61206 7.69386 3.5 7.5 3.5C7.30614 3.5 7.12975 3.61206 7.04738 3.78755L7.5 4ZM8.58161 6.30434L8.12899 6.51679C8.19985 6.66775 8.3413 6.77345 8.50615 6.79861L8.58161 6.30434ZM11 6.6736L11.3579 7.02278C11.4888 6.88864 11.5336 6.69257 11.4741 6.51485C11.4146 6.33713 11.2607 6.20761 11.0755 6.17933L11 6.6736ZM9.25 8.46718L8.89213 8.118C8.78129 8.23159 8.73097 8.39105 8.75652 8.54769L9.25 8.46718ZM9.66323 11L9.42133 11.4376C9.58891 11.5302 9.79467 11.519 9.9512 11.4087C10.1077 11.2985 10.1875 11.1085 10.1567 10.9195L9.66323 11ZM7.2581 9.36657L5.09487 10.5624L5.57867 11.4376L7.7419 10.2417L7.2581 9.36657ZM5.83025 11.0805L6.24348 8.54769L5.25652 8.38667L4.8433 10.9195L5.83025 11.0805ZM6.10787 8.118L4.35787 6.32442L3.64213 7.02278L5.39213 8.81635L6.10787 8.118ZM4.07547 7.16787L6.49385 6.79861L6.34292 5.81007L3.92453 6.17933L4.07547 7.16787ZM6.87101 6.51679L7.95262 4.21245L7.04738 3.78755L5.96577 6.09189L6.87101 6.51679ZM7.04738 4.21245L8.12899 6.51679L9.03423 6.09189L7.95262 3.78755L7.04738 4.21245ZM8.50615 6.79861L10.9245 7.16787L11.0755 6.17933L8.65708 5.81007L8.50615 6.79861ZM10.6421 6.32442L8.89213 8.118L9.60787 8.81635L11.3579 7.02278L10.6421 6.32442ZM8.75652 8.54769L9.16975 11.0805L10.1567 10.9195L9.74348 8.38667L8.75652 8.54769ZM9.90513 10.5624L7.7419 9.36657L7.2581 10.2417L9.42133 11.4376L9.90513 10.5624ZM7.5 14C3.91015 14 1 11.0899 1 7.5H0C0 11.6421 3.35786 15 7.5 15V14ZM14 7.5C14 11.0899 11.0899 14 7.5 14V15C11.6421 15 15 11.6421 15 7.5H14ZM7.5 1C11.0899 1 14 3.91015 14 7.5H15C15 3.35786 11.6421 0 7.5 0V1ZM7.5 0C3.35786 0 0 3.35786 0 7.5H1C1 3.91015 3.91015 1 7.5 1V0Z" fill="#FFDF00"/>
<path d="M8.77297 7.35676C8.59907 7.26788 8.58491 7.27535 8.5008 7.38942C8.48377 7.41251 8.31903 7.6615 8.35111 7.65206C8.41049 7.6346 8.47822 7.53948 8.51441 7.49012C8.53057 7.46809 8.54844 7.38562 8.58789 7.40303C8.66707 7.43796 8.67406 7.52005 8.77841 7.51734C8.97284 7.51229 9.04257 7.29537 9.23974 7.32002C9.31699 7.32968 9.41505 7.3453 9.49421 7.33091C9.58575 7.31426 9.50242 7.19138 9.44795 7.17985C9.2262 7.13294 8.80387 7.27056 8.6641 7.08187C8.60269 6.99897 8.45344 6.91961 8.37016 6.86142C8.3221 6.82783 8.22755 6.79402 8.19733 6.7403C8.17295 6.69696 8.16777 6.62805 8.12385 6.59877C8.06125 6.55704 7.99978 6.49719 7.94558 6.445C7.87338 6.37548 7.89869 6.31268 7.88978 6.2191C7.87436 6.05713 7.69518 5.95426 7.69518 5.79996C7.69518 5.73977 7.6735 5.39459 7.63394 5.52643C7.57663 5.71748 7.62003 5.91689 7.54957 6.10479C7.52334 6.17475 7.51273 6.26573 7.43934 6.30347C7.33111 6.35913 7.2139 6.36285 7.1454 6.47494C7.07242 6.59436 6.98409 6.70282 6.8814 6.79882C6.72498 6.94504 6.58415 6.94034 6.38469 6.94034C6.15669 6.94034 5.92812 6.93569 5.70019 6.94034C5.64087 6.94155 5.32188 6.97856 5.32188 7.02744C5.32188 7.17753 5.54976 7.39427 5.63759 7.50237C5.72268 7.6071 5.78729 7.74053 5.88254 7.83578C5.95023 7.90346 6.04903 7.94239 6.11525 8.0086C6.17364 8.067 6.18555 8.20384 6.20642 8.28213C6.26331 8.49545 6.17648 8.69061 6.17648 8.89995C6.17648 9.09592 6.17648 9.29188 6.17648 9.48784C6.17648 9.54528 6.13883 9.62171 6.12205 9.67836C6.1156 9.70012 6.0974 9.71933 6.10436 9.74368C6.10841 9.75784 6.94075 9.41732 7.02565 9.38305C7.22677 9.30187 7.40179 9.21508 7.62714 9.21839C7.83496 9.22145 7.93764 9.33642 8.10207 9.4266C8.34759 9.56124 8.62258 9.58952 8.88184 9.6838C8.89958 9.69025 8.93921 9.73173 8.9281 9.71646C8.88576 9.65824 8.87702 9.59504 8.86551 9.52594C8.82529 9.28466 8.79746 9.05142 8.79746 8.80742C8.79746 8.65458 8.79491 8.4633 8.8587 8.32296C8.89963 8.23292 8.8879 8.36275 8.89 8.41822C8.8987 8.64756 8.89544 8.87734 8.89544 9.1068C8.89544 9.28524 8.90384 9.45657 8.91858 9.63345C8.93472 9.8272 8.96893 10.2533 8.96893 9.71646C8.96893 9.40748 8.99588 9.08522 8.96349 8.77748C8.94927 8.64244 8.7367 8.57716 8.63144 8.53525C8.52544 8.49304 8.40696 8.50803 8.29531 8.50803C8.1204 8.50803 7.94485 8.50357 7.77003 8.50939C7.59686 8.51517 7.44824 8.54344 7.31415 8.65636C7.22172 8.7342 7.25131 8.69926 7.34953 8.63051C7.62084 8.44059 7.91239 8.24628 8.12793 7.99091C8.21956 7.88235 8.21257 7.78898 8.1742 7.65615C8.09181 7.37096 7.94074 7.05852 7.6666 6.91449C7.5839 6.87103 7.38437 6.83167 7.28965 6.87775C7.21397 6.91456 7.18504 7.01892 7.15085 7.08731C7.09181 7.20538 6.99457 7.23209 6.87323 7.2615C6.63359 7.3196 6.5929 7.42837 6.5929 7.63982C6.5929 7.83373 6.82074 8.06327 6.96577 8.1651C6.98647 8.17963 7.10258 8.20869 7.1073 8.23859C7.11964 8.31676 7.07704 8.40784 7.0447 8.47537C6.95719 8.65812 6.86134 8.6795 6.66639 8.6795C6.60651 8.6795 6.4289 8.69493 6.48676 8.6795C6.67463 8.6294 6.84502 8.53269 7.01748 8.44543C7.17425 8.36612 7.4685 8.35651 7.44887 8.14061C7.43518 7.99001 7.38374 7.85365 7.37675 7.69969C7.37376 7.63395 7.35254 7.61069 7.39035 7.54047C7.46155 7.40825 7.82622 7.55331 7.89114 7.6507" stroke="#FFDF00" stroke-linecap="round"/>
</svg>
